<?xml version="1.0" encoding="utf-8"?>
<!-- Generator: Adobe Illustrator 17.0.0, SVG Export Plug-In . SVG Version: 6.00 Build 0)  -->
<!DOCTYPE svg PUBLIC "-//W3C//DTD SVG 1.1//EN" "http://www.w3.org/Graphics/SVG/1.1/DTD/svg11.dtd">
<svg version="1.1" id="图层_1" xmlns="http://www.w3.org/2000/svg" xmlns:xlink="http://www.w3.org/1999/xlink" x="0px" y="0px"
	 width="932.6px" height="107.8px" viewBox="0 0 932.6 107.8" style="enable-background:new 0 0 932.6 107.8;" xml:space="preserve"
	>
<style type="text/css">
	.st0{opacity:0.31;fill:#2C649F;}
</style>
<g>
	<path class="st0" d="M60.2,9.8c-0.3-4.4-0.2-6.5,0.1-6.5c0.5,0,1.4,0.5,2.8,1.6c1.4,1.1,2.3,2,2.8,2.9c0.8,1.1,1.4,2.6,1.7,4.5
		c0.1,1.5,0.4,2.4,0.7,2.7c0.3,0.3,1.3,0.6,2.9,0.8c4.8,0.6,7.2,1.9,7.2,3.8c0,2.3-1.8,3-5.5,2c-3.5-1-5.7-0.8-6.7,0.6
		c-1,1.4-1.5,5-1.5,10.9c0,4.4,0.2,6.7,0.6,6.7c0.1,0,0.3-0.1,0.7-0.4c1-0.7,2.2-0.9,3.7-0.7c1.5,0.2,2.9,0.9,4.2,1.8
		c1.3,1,1.7,2,1.4,3c-0.3,0.6-2.1,2.1-5.6,4.3c-1.9,1.3-3.2,2.3-4,3c-0.7,0.7-1.1,1.4-1.1,2.1c0,1.2-0.5,2.2-1.6,3.1
		c-1.1,0.8-2.3,1.2-3.7,1.2c-1.5-0.1-3.4,0.5-5.6,2c-0.9,0.6-1.7,1.2-2.5,1.9c-0.7,0.7-1.3,1.3-1.6,1.7c-0.3,0.5-0.3,0.8-0.1,1
		c3.4,2,5.6,3.6,6.8,4.5c1.1,1,1.7,2,1.8,2.9c0.1,1,0.3,1.5,0.7,1.6c0.4,0.1,1.2,0.2,2.6,0.1c1.8-0.1,3.5,0.2,5.1,1
		c1.6,0.8,2.5,1.8,2.8,3c0.4,1.4-0.5,3.4-2.5,5.9c-2,2.5-4.6,4.8-7.7,6.9c-0.9,0.6-0.8,1,0.2,1c0.6,0,1.2-0.1,2-0.4
		c1.6-0.4,3.7-0.1,6.3,1.1c2.6,1.1,4.1,2.3,4.4,3.6c0.4,1.5,0.1,2.7-0.9,3.6s-2.2,1.1-3.9,0.8c-1.7-0.4-3.1-0.6-4.2-0.7
		c-1.1-0.1-2.1-0.6-2.9-1.4c-0.6-0.6-1.3-0.8-2.1-0.7c-0.8,0.1-2.7,0.5-5.7,1.4c-4.3,1.3-7.4,2.1-9.3,2.5c-1.9,0.4-3.6,0.9-4.9,1.5
		c-0.8,0.4-1.5,0.5-1.8,0.5c-0.4,0-0.8-0.2-1.3-0.7c-0.5-0.5-0.7-1-0.7-1.5c0-0.6,0.2-1.6,0.6-3.1c0.6-2.1,1.1-3.4,1.6-3.9
		c0.5-0.5,1.4-0.6,2.7-0.3c2,0.4,4.1-0.5,6.4-2.4c1.5-1.4,1.8-2.8,0.8-4.2c-1-1.4-2.7-1.9-5-1.5c-1.9,0.2-3.2,0-4-0.6
		c-0.8-0.5-1.2-1.6-1.3-3.4c-0.1-1.8,0.2-2.7,0.8-2.8c0.7-0.1,2.4-0.1,5.2-0.2c2.7,0,4.4-0.3,4.9-0.8c0.4-0.4,0.6-2.1,0.8-5.2
		c0.2-3,0.1-4.8-0.3-5.2C46.9,65.6,44,67,39,70.6c-3.4,2.6-6.7,4.7-10.1,6.4c-3.3,1.7-5.9,3.2-7.6,4.5c-1.4,1.1-3.8,2.5-7.1,4.4
		c-3.3,1.9-5.4,2.8-6.1,2.8c-0.7,0-0.6-1,0.4-3c0.3-0.6,0.6-1.2,1.1-1.7c0.6-0.6,2.6-1.8,6.1-3.6c3.5-1.8,5.6-2.7,6.3-2.7
		c0.5,0,0.7-0.2,0.7-0.6c0-0.4,1.4-1.7,4.3-3.7c5.1-3.8,10.4-8.2,15.9-13.3l6.9-6c2.1-1.8,3-2.8,2.6-3.1c-0.1-0.1-0.9,0.3-2.3,1.4
		c-1.2,0.8-4.6,2.7-10.2,5.4c-5.6,2.8-8.6,4.3-8.9,4.7c-0.8,1.3-1.6,1.2-2.4-0.1c-0.8-1.1-1.1-2.3-0.8-3.7c0.2-1.9,0.5-3.2,0.7-3.8
		c0.3-0.6,0.8-1,1.5-1c1,0,2.3-0.6,3.9-1.8c1.6-1.2,2.6-1.8,3.1-1.8c0.8,0,1.5-0.6,2.3-1.8c0.8-1.2,1.2-2.5,1.3-3.8
		c0.1-1.8,0.5-4.5,1-8.3c0.5-3.8,0.6-5.9,0.3-6.4c-0.3-0.5-1.2-0.6-2.6-0.2c-1.5,0.3-3.1,0.2-5-0.4c-1.8-0.5-3.4-1.2-4.6-2.2
		c-2.2-1.8-1.7-2.7,1.4-2.9c0.3,0,0.6,0,1,0c2.3-0.1,4.5-0.5,6.7-1.3c1.8-0.7,2.8-1.4,3.1-2.2c0.3-0.8,0.1-2.4-0.5-5
		c-0.3-1.6-0.1-2.4,0.6-2.3c0.8,0.1,2.1,1.2,3.9,3.3c1.2,1.5,2.1,2.4,2.6,2.6c0.5,0.3,1.2,0.2,2-0.1c1.2-0.5,3.2-1.1,6-1.9l4.2-1.2
		L60.2,9.8z M40.1,52.5c0.2-0.4,0-0.7-0.5-0.7c-1.1,0-1.7,0.2-2.1,0.7c-0.3,0.5-0.1,0.7,0.6,0.7C38.7,53.2,39.4,53,40.1,52.5z
		 M52.4,45.8c0-0.2,0-0.4-0.1-0.4c-0.1-0.1-0.2-0.1-0.5-0.1c-0.2,0-0.6,0.1-1,0.3c-0.4,0.1-0.9,0.3-1.5,0.4
		c-1.3,0.5-2.1,1.2-2.4,2.2c-0.1,0.4,0,0.5,0.4,0.5c0.6,0,1.5-0.4,3-1.3C51.7,46.7,52.4,46.1,52.4,45.8z M57.9,36.5
		c0-1.1-0.1-1.8-0.4-2.1c-0.2-0.3-0.9-0.4-1.8-0.4c-1.8-0.1-3.6,0-5.5,0.3c-1.9,0.2-2.9,0.5-2.9,0.7c0,0.4,0.7,1.3,2,2.6
		c0.9,0.8,1.7,1.4,2.3,1.6c0.6,0.2,1.7,0.3,3.1,0.2c1.5-0.1,2.5-0.2,2.7-0.5C57.7,38.6,57.9,37.8,57.9,36.5z M59.1,22
		c0.1-1.3-1.4-1.5-4.6-0.4c-3.5,1-5.6,2.3-6.2,3.9c-0.6,1.1-0.7,1.8-0.4,2c0.3,0.2,2.3,0.3,5.9,0.5h5.2l0.1-2.4
		C59,23.7,59.1,22.5,59.1,22z M92.7,63.1c2.3,1.1,3.8,1.9,4.3,2.4c0.6,0.5,0.8,1.2,0.8,2.2c0,1.6-0.7,2.4-2.1,2.5
		c-1.4,0-4.2-0.7-8.2-2.2c-4.6-1.8-7-2.6-7.2-2.6c-0.2,0-2.2-1.2-5.8-3.6c-3.6-2.4-5.8-4-6.8-4.8c-1.1-1-1.7-1.6-1.7-2
		c0-0.3,0.7-0.4,2-0.2c1.3,0.2,3.1,0.5,5.3,0.8c2.2,0.4,3.5,0.7,4,1.1c0.5,0.4,2.3,1.1,5.4,2.2C85.9,60.2,89.2,61.5,92.7,63.1z"/>
	<path class="st0" d="M156.3,34.9c0.6,0,1.5,0.5,3,1.5c1.4,1,2.3,1.9,2.7,2.6c0.4,0.6,0.9,1,1.6,1c0.7,0,1.5,0.6,2.5,1.9
		c0.7,0.9,1.4,1.4,2.1,1.5c0.7,0.1,2.4,0.1,5.1-0.2c4.1-0.4,6.8-0.6,8-0.4c1.3,0.1,3.1,0.8,5.4,1.9c3,1.3,4.6,2,5,2
		c0.6,0,0.9,0.3,1,0.9c0.1,0.6-0.1,1.1-0.7,1.4c-0.6,0.4-4.6,0.6-12.2,0.6c-7.6,0-11.5,0.2-11.9,0.6c-0.4,0.4-0.6,6.1-0.7,17.1
		c0,7.5-0.1,12.3-0.2,14.4c-0.1,2-0.6,3.8-1.4,5.4c-1.3,2.8-2.7,4.4-4.3,4.7c-1.6,0.3-4-0.5-7.1-2.5c-2.9-1.9-5.1-3.2-6.8-3.8
		c-3.3-1.3-4-2-2-2.2c0.5,0,1.1,0,1.7,0c3.4,0,5.6-0.2,6.7-0.6c1.1-0.4,2-1.5,2.6-3.2c0.5-1.5,1.1-6.4,1.7-14.7
		c0.6-8.3,0.8-12.7,0.4-13.2c-0.4-0.4-2.3-0.2-6,0.7c-3.6,0.9-6.5,1.9-8.6,2.9c-1.3,0.6-3,1.3-5.1,2c-2.1,0.7-4,1.2-5.7,1.6
		c-1.6,0.4-2.4,0.4-2.4,0.2c0-0.1-0.5,0-1.4,0.5c-0.9,0.5-1.6,0.5-2.1-0.1c-0.4-0.5-1-1.8-1.8-4c-0.8-2.1-1.2-3.5-1.2-4.1
		c0-0.4,1-0.4,3.1-0.1c2.1,0.3,5-0.1,8.9-1.2c3.8-1.1,8.5-2.2,14-3.3c5.5-1.1,8.3-1.8,8.5-2c0.2-0.2-0.4-1.4-1.6-3.7
		c-1.2-2.3-1.8-3.9-1.8-4.8C155.3,35.4,155.6,34.9,156.3,34.9z M158.7,15.8c2.3-1.1,4-1.7,5.1-2c1.2-0.3,2.4-0.4,3.7-0.2
		c1.7,0.3,3.1,0.7,4.2,1.2c1.1,0.5,1.6,1.1,1.6,1.7c0,0.5-1.3,1.7-3.9,3.6c-2.6,1.9-5.3,3.7-8,5.3c-2.9,1.6-5.1,3-6.8,4.1
		c-1.9,1.2-2.9,1.5-2.9,1.1c0-0.4,0.8-1.2,2.3-2.6c2.5-2.2,3-3.3,1.6-3.5c-0.5-0.1-1.1,0-1.9,0.2c-0.9,0.3-1.6,0.4-2.2,0.2
		c-0.5-0.1-1.3-0.6-2.3-1.4c-3.2-2.7-2.9-4.3,0.7-4.8C152.1,18.5,154.9,17.5,158.7,15.8z"/>
	<path class="st0" d="M239.9,21.4c1.8-0.9,3.5-1.3,5.3-1.3c1.8,0.1,3.1,0.6,4.1,1.5c1.8,1.8-0.3,3.9-6.3,6.3
		c-0.6,0.3-1.2,0.6-1.9,0.8l-2.9,1.2l2.3,2.2c1.3,1.4,2,2.9,2.2,4.5c0.2,1.6-0.2,4-1,7.1c-0.7,2.8-1.1,4.6-1.1,5.3
		c0,1.3,0.9,2.3,2.8,2.9c1.9,0.6,3,0.3,3.4-0.8c0.6-1.4,0.9-1.5,1.1-0.2c0.1,0.8,0.1,2-0.1,3.4c-1.5,9.9-4.7,17.9-9.4,24.2
		c-5.1,6.8-8.7,7.7-10.8,2.6c-0.4-1.1-0.6-1.9-0.4-2.6c0.1-0.7,0.7-2,1.7-4c1.5-3,2.3-4.8,2.3-5.4c0-0.7-1.1-2.1-3.4-4.3
		c-2.3-2.1-3.9-3.2-4.7-3.2c-1.1,0-2-0.4-2.9-1.2c-0.9-0.8-1.3-1.7-1.3-2.7c0-0.8,0.5-1.6,1.6-2.3c1.1-0.7,2.2-1,3.4-1
		c0.8,0,2.9-0.7,6.1-2c2.3-0.8,3.7-1.4,4.2-1.9c0.6-0.5,1.1-1.4,1.5-2.6c1-3.9,1.5-7.4,1.6-10.5c0.1-3.1-0.3-5.1-1.2-5.9
		c-0.5-0.5-0.9-0.7-1.3-0.7c-0.4,0-1.1,0.3-2.1,0.9c-1.1,0.6-1.8,0.9-2.2,0.9c-0.4,0-1-0.4-2-1c-1.3-1-2-1.7-2.2-2.2
		C226.1,28.8,230.6,26.1,239.9,21.4z M234.1,60.5c0-0.6-0.2-0.9-0.5-1s-0.7,0.1-1.1,0.5c-0.5,0.5-0.7,0.9-0.6,1.2
		c0.1,0.3,0.5,0.5,1.2,0.5c0.2,0,0.4-0.1,0.6-0.3C233.9,61.1,234.1,60.9,234.1,60.5z M273.1,19.1c3.7-3.4,5.7-5,6.2-4.9
		c5.6,1.7,8.5,3.1,8.9,4.1c0.2,0.7,0.2,3,0,6.9c-0.2,3.9-0.5,6.5-0.7,7.8c-0.8,3-1.4,7.2-1.7,12.5c-0.4,3.8-0.8,7.6-1.2,11.5
		c-0.5,3.8-0.7,6.1-0.7,6.7c0,0.6-0.6,1.3-1.8,2.2c-0.8,0.6-1.4,0.8-1.8,0.8c-0.4,0-0.8-0.3-1.5-1c-0.9-0.9-1.4-1.8-1.4-2.5
		c0-1-0.3-1.6-0.9-1.8c-0.6-0.2-1.2,0-1.7,0.7c-0.4,0.6-0.6,1.1-0.6,1.5c0,0.4,0.3,0.7,0.8,1.2c0.7,0.8,1.1,2.1,1.2,3.8
		c0.1,1.7-0.1,4.6-0.6,8.7l-0.4,5.6l1.9,0.7c1.5,0.6,4.3,0.8,8.6,0.6c4.2-0.1,7.4-0.6,9.4-1.3l3.7-1.3l0.5-5.7c0.4-4,0.8-6.5,1-7.6
		c0.2-1,0.7-1.5,1.3-1.5c1.1,0,2.6,2.9,4.5,8.8c0.7,2.1,1.5,3.9,2.3,5.3c1.9,3.4,0.4,6.3-4.4,8.7c-1.7,0.9-3.2,1.5-4.5,1.6
		c-1.3,0.2-3.9,0.3-7.8,0.3c-4.6,0-7.7-0.1-9.2-0.3c-1.5-0.2-3.3-0.9-5.6-2.1c-1.5-0.8-2.8-1.9-3.8-3.3c-1-1.4-1.5-3-1.5-4.6
		c0-1.1,0.5-3.3,1.5-6.7c0.7-2.6,1-4.8,1-6.5c-0.1-1.7-0.6-2.6-1.5-2.6c-0.6,0-1,0.2-1,0.7c0,0.5-2.5,3.2-7.4,8.2
		c-3.5,3.7-7.4,7.1-11.7,10.3c-4.3,3.2-7,4.8-8.2,4.8c-0.5,0-0.7-0.2-0.5-0.6c0.4-0.5,2.6-2.9,6.8-7.3c2-2.2,4.4-5.1,7-8.6
		c2.6-3.6,4-5.6,4-6.2c0-0.6-0.5-1.8-1.6-3.8c-1.8-3.3-2-9.3-0.6-18c0.5-3.1,0.8-6.4,1.1-9.8c0.2-3.4,0.5-5.3,0.7-5.7
		c0.3-0.3,1.1-0.1,2.3,0.7c1,0.6,1.6,1.2,1.7,1.8c0.2,0.7,0.3,2.7,0.3,6c-0.1,4.6-0.4,9.4-0.6,14.4c-0.4,4.9-0.2,7.3,0.4,7.3
		c0.3,0.1,0.7-0.2,1.2-0.8c1.1-1.3,1.3-3.2,0.6-5.8c-0.4-1.3-0.2-2.4,0.5-3.3c0.8-0.9,1.2-1.7,1.2-2.4c0-1.9,1.2-2.2,3.5-1
		c2,1,3.3,1.3,4,1c0.7-0.4,1.3-1.6,1.8-3.7c0.6-2.4,1-6.1,1.3-11c0.3-4.8,0.1-7.3-0.5-7.6c-0.5-0.1-1.5,0.4-3.2,1.5
		c-1.4,1-2.5,1.4-3.3,1.4c-0.8-0.1-1.7-0.6-2.8-1.7l-1.8-1.9L273.1,19.1z"/>
	<path class="st0" d="M383.7,12.7c0.6-0.6,2.2-0.6,4.6,0.2c2.5,0.8,4.1,1.7,5,2.6c0.8,1.3,1.8,2,2.7,2.2c1.7,0.6,1.8,1.4,0.2,2.5
		c-0.6,0.6-1.5,1.1-2.6,1.5c-1.4,0.5-3,1.5-4.8,3.1c-1.8,1.5-4.5,4.2-8.1,7.9c-5.6,5.8-9.1,9.7-10.4,11.7c-1.3,2-1.7,4.1-1.1,6.2
		c0.2,0.8,0.4,1.4,0.6,1.7c0.2,0.4,0.5,0.7,0.7,1c0.3,0.3,0.8,0.3,1.6,0.1c0.8-0.2,1.6-0.4,2.5-0.7c0.9-0.2,2.3-0.7,4.2-1.4
		c3.4-1.3,5.4-2.3,6-3.1c0.5-0.8,0.1-2-1.2-3.8c-0.8-1.1-1.4-2.3-1.5-3.7c-0.2-1.4,0.1-2.5,0.8-3.1c0.6-0.6,1.7-0.1,3.3,1.3
		c3,3,5.2,5,6.8,6c1.6,1.1,3.3,1.8,5,2.1c2.6,0.6,4.3,1.4,5.1,2.5c0.6,0.8,0.8,1.4,0.7,1.8c-0.1,0.4-0.4,0.9-1.1,1.7
		c-0.8,1.1-1.7,1.6-2.5,1.4c-3-0.6-4.7,0.6-5.2,3.4c-0.4,1.8-1.2,4.1-2.6,7.1c-1.4,3-2.1,4.6-2.1,4.9c0,0.3,1.1,0.2,3.2-0.1
		c2.6-0.3,5.6,0.2,9,1.5c3.4,1.3,5.1,2.6,5.1,4c0,0.6-0.9,1.3-2.6,2.3c-1.8,1-3.2,1.5-4.3,1.5c-1.3,0-3-0.2-5-0.6
		c-2-0.4-4.7,0.1-8,1.5c-3.2,1.2-6.8,2-10.8,2.4c-4,0.4-6.2,0.1-6.5-0.8c-0.7-1.9-1.4-2-2.1-0.4c-0.7,1.4-1.1,3.4-1.1,6.1
		c0,1.6-0.3,3-0.8,4.2c-0.5,1.2-1.1,1.8-1.7,1.8c-0.8,0-1.8-1-3-2.9c-1.2-1.9-1.8-3.5-1.8-4.8c0-1.6,0.2-3.1,0.7-4.3
		c1-2.6,1.8-7.2,2.4-13.9c0.6-6.7,0.5-10.2-0.2-10.7c-0.1-0.1-0.6,0.3-1.3,1.1c-0.7,0.8-1.5,1.9-2.4,3.2c-5,7.8-9.2,13.7-12.5,17.7
		c-3.3,4-6.8,7.2-10.5,9.6c-3.7,2.5-5.1,3-4.1,1.3c0.7-1.1,2.5-3.1,5.3-6.1c4.7-4.9,10.1-11.9,16.1-21.1c6-9.2,8.8-14.6,8.4-16.2
		c-0.4-0.8-0.1-1.3,0.8-1.3c0.6,0,1.6-1,3-3c1.4-2,2.2-3.3,2.3-4.1c0-0.4,1.1-1.8,3.2-4.4c2.1-2.6,3.1-4.1,2.9-4.5
		c-0.5-0.8-3.7,0.7-9.7,4.4c-5.3,3.2-9,5.1-11.2,5.6c-2.2,0.5-4.5-0.1-7.1-1.7c-2.7-1.7-3.1-2.7-1.3-3.1c0.2-0.1,0.5-0.1,1-0.1
		c3,0,9.1-2.1,18.2-6.4l11.6-5.3c2.6-1.3,4.5-2.4,5.8-3.5c1.2-1.1,1.8-2.3,1.8-3.5C383.1,14,383.3,13.2,383.7,12.7z M375.6,61.2
		c-1.7-0.8-3-1.3-4-1.3c-0.8,0-1.4,0.5-1.7,1.4c-0.3,1-0.6,3.3-0.8,7.1l-0.4,3.6l4.8,0.6c3.2,0.4,5,0.3,5.3-0.2
		c0.3-0.5,1.1-1.5,2.3-3.2c1-1.2,2-2.9,3-5.2c1-2.3,1.3-3.5,1.1-3.8c-0.2-0.3-1.4,0-3.6,0.8c-1.5,0.6-2.6,0.8-3.2,0.8
		C377.7,62.1,376.8,61.8,375.6,61.2z"/>
	<path class="st0" d="M437.7,68.3c3.8,2,4.8,5,3,9.1c-1.8,4.1-4.5,8.6-8,13.6c-3.5,4.9-5.5,7.4-6,7.4c-0.5,0-0.7-0.2-0.7-0.7
		c0-0.5,1.3-2.8,3.9-7c2.6-4.2,4.1-8.5,4.4-13C433.9,70.6,435.1,67.5,437.7,68.3z"/>
	<path class="st0" d="M545.7,21.3c-0.2-0.6-0.2-1.1,0-1.3c0.2-0.2,0.8-0.3,1.8-0.3c1.2,0,2.3,0.4,3.2,1.1c0.9,0.7,1.4,1.6,1.4,2.6
		c0,1.3-0.8,4.2-2.5,8.4c-1.7,4.3-3.5,8.4-5.5,12.4c-3,5.6-4.4,8.4-4.2,8.5c0.1,0.1,1.3,0.3,3.6,0.7c1.5,0.2,2.6,0.2,3.1,0.1
		c0.5-0.1,1.1-0.7,1.8-1.8c1.1-1.5,2.1-2.3,3.2-2.3c2.7,0,7.1-2.3,13.2-6.9c2.5-1.9,4-3.2,4.6-4c0.6-0.7,1-1.9,1.2-3.4
		c0.4-2.3,0.2-4.4-0.3-6.5c-0.6-2.1-0.8-3.6-0.8-4.7c0-0.6,0.1-1,0.4-1.1c0.2-0.1,0.8-0.1,1.5,0.2c1.4,0.4,2.7,1.1,3.8,2.3
		c1.1,1.2,2,2.6,2.5,4.3c0.4,1.1,0.8,1.9,1.3,2.4c0.4,0.5,1.2,0.8,2.2,1.1c1.5,0.3,3.2,0.7,5.1,1.2c1.6,0.5,2.6,1.1,3.1,2
		c0.4,0.8,0.3,1.6-0.5,2.5c-0.7,0.8-2,1.5-3.6,2.1c-2.3,0.6-4.6,1.6-6.7,2.9c-2.1,1.3-3.4,2.4-3.9,3.4c-0.5,1.1-0.2,2.6,0.7,4.8
		c0.6,1.2,1.1,2.5,1.3,3.8c0.2,1.3,0.3,3.5,0.3,6.4c0,4.9-0.2,9-0.6,12.5c-0.3,3-0.1,4.9,0.5,5.8c0.6,0.9,2.5,1.7,5.6,2.3
		c4.2,0.8,6.7,0.8,7.6-0.1c0.9-0.9,1.1-3.7,0.8-8.5c-0.2-2.8-0.2-4.8,0.1-5.9c0.2-1.1,0.7-1.3,1.4-0.7c0.7,0.6,1.7,2.1,3,4.5
		c0.9,1.7,2,3.3,3.4,4.9c1.7,2,2.7,4.3,3.1,6.9c0.4,2.5,0,4.6-1.2,6.3c-0.7,1-1.4,1.6-2,1.8c-0.6,0.2-2.1,0.4-4.4,0.4
		c-2.4,0-5.2-0.3-8.4-0.9c-3.2-0.6-5.8-1.3-7.7-2c-2.6-1.1-4.8-2.9-6.4-5.7c-1.7-2.7-2.3-5.4-1.9-8.1l1.6-9.7c0.7-4.7,0.9-8,0.5-9.8
		l-0.5-2.6l-1.2,2.1c-0.8,1.5-1.5,3.6-2.3,6.2c-4.4,13.3-10.2,21.1-17.6,23.3c-1,0.3-1.5,0.3-1.5,0c0.1-0.6,1.4-2.2,3.9-4.9
		c2.7-2.8,4.8-5.7,6.2-8.7c1.1-2.3,2.5-5.5,4.1-9.8c1.6-4.3,2.4-6.9,2.4-7.8c0-1.2-0.7-1.3-2-0.4c-0.6,0.5-1.2,1.2-1.7,2.2
		c-1.3,2-2.7,3.1-4.2,3.3c-1.5,0.2-3-0.4-4.4-2.1c-0.6-0.7-1.1-1.1-1.4-1.1c-1.1,0-2.3,4.6-3.4,13.9c-1.1,9.3-1.3,15.6-0.5,18.8
		c0.4,1.9,0.5,3.1,0.4,3.5c-0.2,0.4-0.8,0.6-1.8,0.6c-1.2,0-2.5-0.5-3.9-1.5c-1.4-1-2.5-2.2-3.2-3.6c-2.5-5.4-3.6-8.6-3.2-9.4
		c0.6-0.8,1.1-2.6,1.6-5.3c0.5-2.7,0.8-5,0.8-7c0-2-0.1-3.1-0.5-3.5c-0.8,0-2.2,1.1-4.3,3.4c-2.1,2.3-3.3,3.9-3.5,5.1
		c-0.4,2.1-1.3,2.8-2.5,2.1c-1.2-0.7-2.1-2.3-2.6-4.8c-0.4-1.5-0.4-2.6-0.3-3.4c0.2-0.8,0.7-2.1,1.6-3.9c1.5-2.7,2.5-4.4,3.2-5.1
		c1-1.2,3.5-5.7,7.6-13.4c4-7.7,6.6-12.9,7.7-15.7C545.5,24.2,546,22.3,545.7,21.3z M582.2,13c0.3-0.4,1.4-0.4,3.4-0.1
		c2,0.3,3.6,0.8,4.8,1.3c1.3,0.8,2.7,1.8,4.2,3.1c0.9,0.8,1.5,1.5,1.8,2.1c0.3,0.6,0.5,1.5,0.5,2.6c0,1.1-0.1,1.9-0.4,2.4
		c-0.2,0.5-0.7,0.9-1.4,1.3c-2.4,1-5.3-0.6-8.8-4.9c-1.5-1.8-2.6-3.2-3.4-4.2C581.4,15.2,581.2,14,582.2,13z"/>
	<path class="st0" d="M669.9,19.6c1.1-1,2.6-1.1,4.7-0.2c2.1,0.8,3.9,2.4,5.5,4.5c0.9,1.2,2.5,2.3,4.9,3.3c2.3,1,4.4,1.5,6.3,1.5
		c1.1,0,2.1,0.5,3,1.5c1,1,1.4,2.1,1.4,3.2c0,1.2-0.8,3.1-2.4,5.6c-1.6,2.5-2.7,4.8-3.4,6.7c-0.7,2.5-2.2,5.3-4.5,8.3
		c-2.3,3-4.4,5.1-6.3,6.2c-1.9,1.1-3.1,2.2-3.7,3.1c-0.6,1-0.7,2.4-0.4,4.3c0.1,1,0.4,1.6,0.8,1.7c0.5,0.2,2,0.4,4.4,0.6
		c4.1,0.1,8.3-0.4,12.8-1.7c4.4-1.3,8.2-3,11.3-5.2l1.7-1.3l-0.3,3.7c-0.5,3.6-2,6.8-4.4,9.7s-5.4,4.8-8.9,5.8
		c-2.7,0.8-5.7,1.2-9.1,1.3c-3.4,0.1-5.9-0.2-7.6-0.8c-2-0.7-3.8-2-5.5-4c-1.7-1.9-2.9-4-3.6-6.3c-0.8-2.4-1.8-4-3.2-4.8
		c-1.4-0.8-2.2-1.9-2.6-3.5c-0.6-3.3-1.8-2.7-3.6,1.8c-1,2.4-2.6,5.3-4.9,8.8c-2.3,3.5-3.6,6.1-3.9,7.9c-0.4,1.8-0.8,3.2-1.3,4.1
		c-0.6,0.8-1.3,1.1-2.2,1.1c-0.9,0-1.8-0.6-2.7-1.6c-0.9-1.1-1.6-2.3-2.1-3.7c-0.6-2-1.3-3.4-2.2-4.4c-0.9-1-1.5-2.1-1.8-3.3
		c-0.3-0.8-0.2-1.5,0.1-2.1c0.4-0.6,1-1.4,2-2.5c1.3-1.2,2.2-2.2,2.5-2.9c0.3-0.7,0.5-2.1,0.6-4.1c0.3-2.8,0.2-4.2-0.2-4.2
		c-0.4,0-1.8,1.3-4.2,3.9c-2.1,2.3-3.6,3.4-4.4,3.3c-0.8,0-1.4-1.2-1.7-3.6c-0.1-1.3-0.1-2.3,0.1-3c0.2-0.6,0.8-1.4,1.8-2.3
		c1.3-1.5,4.3-6.8,9-16c4.6-9.2,7-14.4,7-15.7c0-0.4-0.4-0.6-1.1-0.6c-1.1,0-1.3-0.5-0.8-1.4c0.4-0.6,0.9-1.2,1.7-1.6
		c0.8-0.5,1.4-0.6,1.9-0.5c0.5,0.1,1.3,0.4,2.6,1c3.2,1.8,4.3,3.6,3.2,5.4c-0.6,1-1,1.8-1,2.3c0,0.9-1.9,4.6-5.7,11.1
		c-2.7,4.7-3.9,8-3.6,9.8c0.1,0.4,0.2,0.6,0.5,0.6c0.4,0,1.4,0.7,2.9,2.1c1,1.1,1.7,1.6,2.3,1.7c0.5,0.1,1.2-0.2,2-0.9
		c0.8-0.7,2.3-2.2,4.4-4.5c3.9-4.4,5.9-8.8,5.9-13c0-1.1,0.8-3.2,2.5-6.5c1.7-3.3,2.5-5.6,2.5-7S669.4,20.2,669.9,19.6z M669.1,36.3
		c1-1,1.4-2.4,1.3-4.2l-0.2-3l-1.3,2.7c-0.8,1.8-1.2,3.2-1.2,4.3v1.6L669.1,36.3z M682,36.1c-0.8,0-1.5,0.4-2,1.1
		c-0.5,0.7-0.7,1.7-0.7,3c0,1.5,0.2,2.3,0.7,2.3c0.5,0.1,0.9-0.6,1.4-1.9c0.5-1.3,0.9-2.4,1.2-3.3C682.9,36.5,682.7,36.1,682,36.1z"
		/>
	<path class="st0" d="M770.7,8.4l3.4,1.4c1.2,0.5,2.3,1.6,3.4,3.4c1.1,1.8,1.6,3.4,1.6,5c0,1.6,0.6,2.8,1.9,3.6
		c1.3,0.9,1.9,2.1,1.8,3.4c-0.1,1.4-0.9,2.4-2.4,3c-0.9,0.4-1.6,1-2.1,1.7c-0.5,0.7-1.1,2.2-1.8,4.5c-1.1,3.5-1.5,5.4-1.4,5.5
		c0.1,0.2,1.6-0.2,4.4-1c2.4-0.7,4.3-1.1,5.6-1.1c1.3,0,3.5,0.2,6.5,0.7c2.4,0.4,4.2,1.1,5.4,2.1c1.2,1,1.6,2.1,1.2,3.5
		c-0.4,1.1-1.1,1.7-1.9,2.1s-3.4,0.7-7.6,1.2l-7.6,1l0.4,2.1c0.3,1.3-0.6,3.6-2.7,6.7l-3.1,4.4l0.4,12.7c0.3,10.8,0.3,17.3-0.1,19.6
		c-0.3,2.3-1.4,3.4-3.2,3.4c-1.5,0-3.7-1.2-6.5-3.7c-2.9-2.5-4.7-4.6-5.4-6.4c-0.3-0.6-1.4-1.5-3.2-2.6c-1.9-1.1-3.2-1.6-4-1.6
		c-0.6,0-2.3,0.7-5.3,2.2c-3,1.5-5.4,2.8-7.2,4c-4.2,2.8-6.8,3.7-7.9,2.6c-0.4-0.5,0.1-1.2,1.5-2.1c3.5-2.3,7.1-5.1,10.7-8.4
		c3.6-3.3,5.4-5.4,5.4-6.4c0-1,0.4-1.4,1.3-1.2c0.8,0.2,3.6-2.2,8.2-7c3.2-3.4,5.2-5.7,5.9-6.7c0.7-1,1.1-2.2,1.1-3.6
		c0-1.4-0.1-2.3-0.3-2.6c-0.2-0.3-0.7-0.5-1.4-0.5c-1.1,0-3,0.9-5.6,2.6c-4.7,3.2-9.3,4.6-13.6,4c-2.7-0.3-4.8-1.2-6.2-2.7
		c-0.9-1.1-0.5-1.7,1.3-1.7c1,0,2.2-0.4,3.7-1.2c1.5-0.8,5.6-2.7,12.3-5.8l10-4.3l-0.1-5c-0.1-3.4-0.3-5.2-0.4-5.3
		c-0.1-0.1-1,0.2-2.4,1s-2.6,1.1-3.4,1.1c-0.6,0-0.8-0.1-0.8-0.3c0-0.2,0.3-0.6,0.8-1.3c0.5-0.8,0.7-1.4,0.5-1.9
		c-0.2-0.5-1-1.5-2.6-3c-3-3.2-4.1-5-3.2-5.6c0.3-0.2,0.9-0.3,1.9-0.3c1.8-0.1,4-0.6,6.7-1.7l3.9-1.6l0.6-4c0.4-2.5,0.4-4.4-0.2-5.5
		s-0.7-1.9-0.4-2.3C769,8,769.7,8,770.7,8.4z M762.7,74.2c-1.2,0.8-2,1.3-2.5,1.6c-0.5,0.3-0.9,0.7-1.4,1.2c-0.5,0.5-0.7,0.8-0.7,1
		c0,0.1,0.1,0.4,0.4,0.8c0.3,0.4,0.6,0.7,1,0.9c0.4,0.2,1,0.6,1.8,1.2c2.9,1.8,4.6,2.7,5.2,2.7c0.6,0,0.9-1.7,0.9-5.2
		c0-3.5-0.2-5.5-0.5-6C766.8,71.9,765.3,72.5,762.7,74.2z M785.6,68.8c0.3-0.4,1.2-0.5,2.8-0.4c1.6,0.1,3.6,0.4,6,1
		c2.4,0.6,4.5,1.2,6.1,1.8c3.8,1.6,6.6,3.2,8.3,4.6c1.8,1.4,3.2,3.4,4.4,6c1.1,2.2,1.6,3.6,1.7,4.2c0.1,0.6-0.1,1.2-0.7,1.8
		c-0.8,0.8-2.1,1.2-3.8,1.2c-1.1-0.1-2.1-0.5-3.2-1.2c-1.1-0.7-2.7-2.2-5-4.5c-3.7-3.5-6.3-5.8-8-7c-2.1-1.5-4.1-3-6-4.5
		C786.5,70.3,785.6,69.3,785.6,68.8z"/>
	<path class="st0" d="M870,10.8c0.4-0.2,0.7-0.3,1-0.2c0.3,0.1,1.3,0.5,3.2,1.3c2.4,1.1,4.1,1.3,5.2,0.8c1.1-0.5,2.4-0.5,4.1,0.1
		c2.5,0.8,3.9,1.8,4,3c0.1,1.1-1.1,2.1-3.5,2.9c-4.5,1.3-6.7,3.9-6.7,7.7c0,2,0.1,3.2,0.4,3.4c0.3,0.2,1.9,0.1,4.8-0.5
		c2-0.4,3.4-0.6,4.3-0.6c0.9,0,2,0.2,3.3,0.7c2,0.6,3.1,1.4,3.3,2.3c0.1,0.6-1,2.4-3.1,5.4c-2.1,3-3.7,4.8-4.6,5.4
		c-0.6,0.4-1.9,1.8-3.8,4.3c-1.9,2.4-2.9,3.9-2.9,4.3c0,0.3,0.3,0.5,0.8,0.5c0.6,0.1,1.3,0.1,2.1-0.1c0.8-0.1,1.7-0.3,2.6-0.7
		c1.3-0.4,2-0.7,2.2-1.1c0.2-0.4-0.1-0.9-0.7-1.5c-0.4-0.3,0.3-0.4,2-0.4c4.4,0,8.5,0.5,12.5,1.5c2.5,0.8,3.7,1.6,3.7,2.4
		c0,1.1-0.6,1.8-1.8,2.2c-1.2,0.4-3.6,0.7-7.3,0.8c-4.2,0.3-7,0.8-8.4,1.4c-1.5,0.7-2.4,1.8-2.7,3.5c-0.3,1.8-1.2,3.7-2.7,5.5
		c-1.1,1.3-1.8,2.3-2,3c-0.2,0.6-0.1,2,0.3,4.2c0.4,2.8,0.5,6.5,0.4,11.1c-0.1,4.6-0.4,7.6-0.9,9.2c-0.4,1.2-0.8,1.9-1.2,2.1
		c-0.4,0.2-1.1,0.3-2.3,0.2c-1.8-0.1-3-0.7-3.4-1.8c-0.8-1.5-2.5-3.6-5.3-6.3s-4.5-4.1-5.2-4.1c-1.5,0-4.8,1.9-9.6,5.8
		c-5.5,4.5-8.7,6.3-9.7,5.5c-0.4-0.4,0-1,1.2-1.8c2.7-1.8,8-6.3,16.1-13.5c8-7.2,12.4-11.4,13-12.8c0.5-0.8,0.6-1.8,0.3-3.1
		c-0.3-1.3-0.9-1.9-1.6-1.9c-0.7,0-3.2,1-7.6,3.1c-11.4,5.1-17.1,5.5-17.1,1c0-1,0.3-1.7,0.9-2.3c0.6-0.5,1.7-0.9,3.2-1.2
		c2.6-0.6,6.8-3.2,12.5-8c5.7-4.8,8.6-8,8.6-9.6c0-1-0.1-1.5-0.4-1.5c-0.3,0-1,0.4-2.2,1.3c-3.8,2.7-6.4,3.8-7.7,3.3
		c-0.5-0.3-1.2-1.3-2.1-3.1c-0.9-1.8-1.3-3.1-1.3-4.1c0-0.6,0.9-1.9,2.7-3.7c1.8-1.9,3.9-4.3,6.2-7.3c2.3-3,3.4-4.7,3.4-5.2
		c0-0.5-0.7-0.6-2-0.3c-2.2,0.7-4.5,0.8-6.8,0.4c-2.4-0.5-3.5-1.2-3.5-2.3c0-0.4,1-0.8,3.1-1.1c1.5-0.3,3.4-0.9,5.7-1.8
		c2.3-0.9,3.6-1.6,3.9-2.1c0.2-0.4,0.1-1.4-0.3-2.8C869.9,12,869.8,11.1,870,10.8z M873.5,79.4c0.2-3.1,0.1-4.8-0.4-5.2
		c-0.5-0.4-1.8,0.2-4,1.6c-2.5,1.8-4.2,3.1-4.9,4c-0.7,0.9-0.8,1.7-0.3,2.4c0.5,0.7,1.9,1.6,4.1,2.7c2.3,1.1,3.8,1.3,4.4,0.7
		C873.1,85,873.4,82.9,873.5,79.4z M870.6,32.7c-0.4-0.5-0.6-0.7-0.8-0.5c-0.2,0.1-0.8,0.7-1.7,1.7c-1,1.2-1.2,1.8-0.5,1.8
		s1.4-0.4,2.2-1.1C870.5,33.8,870.8,33.2,870.6,32.7z M880.1,36.8c0.1-0.1,0-0.2-0.3-0.3c-0.1-0.1-0.4-0.1-0.7,0
		c-0.8,0-1,0.1-0.3,0.4C879.4,37.1,879.9,37.1,880.1,36.8z M888.4,72.3c-0.1-0.5,0.6-0.6,2-0.2c0.8,0.2,2.1,0.6,4,1.1
		c8.7,2.5,14.6,4.8,17.7,7c3,2.2,4.7,4.1,5.3,5.8c0.6,1.7,0,3-1.7,4c-2,1.1-5.2-0.2-9.7-3.7c-3-2.3-5.8-4.3-8.6-6.1l-6-4
		C889.4,74.7,888.4,73.5,888.4,72.3z"/>
</g>
<g>
</g>
<g>
</g>
<g>
</g>
<g>
</g>
<g>
</g>
<g>
</g>
<g>
</g>
<g>
</g>
<g>
</g>
<g>
</g>
<g>
</g>
<g>
</g>
<g>
</g>
<g>
</g>
<g>
</g>
</svg>
