<?xml version="1.0" standalone="no"?><!DOCTYPE svg PUBLIC "-//W3C//DTD SVG 1.1//EN" "http://www.w3.org/Graphics/SVG/1.1/DTD/svg11.dtd"><svg t="1550649061893" class="icon" style="" viewBox="0 0 1024 1024" version="1.1" xmlns="http://www.w3.org/2000/svg" p-id="2276" xmlns:xlink="http://www.w3.org/1999/xlink" width="200" height="200"><defs><style type="text/css"></style></defs><path d="M512 63.9C264.4 63.9 63.9 264.4 63.9 512S264.4 960.1 512 960.1c247.3 0 448.1-200.5 448.1-448.1S759.3 63.9 512 63.9z m0 851.4c-222.7 0-403.3-180.6-403.3-403.3S289.3 108.7 512 108.7 915.3 289.3 915.3 512 734.7 915.3 512 915.3z" fill="#29A1F7" p-id="2277"></path><path d="M432.8 377.6l-42.3 11.3 68.9-116.6c11-19 30.6-30.3 52.5-30.3s41.6 11.4 52.5 30.3l78.7 136.3 53-30.5-33.6 125.7-125.8-33.7 54-31.2L512 302.7l-68.3 115.7-10.9-40.8z m-127 282.1l77.7-134.5 54 31.2-33.7-125.8L278 464.3l53 30.5-77.7 134.6c-11 19-11 41.7 0 60.7s30.6 30.3 52.5 30.3h144.5L420 690.3l30.3-30.4H305.8v-0.2zM700 506.4l-11.3 42.2-40.6-10.8 70.3 122H561.9V598l-92 92 92 92v-61.6h156.3c21.9 0 41.6-11.4 52.5-30.3 11-19 11-41.7 0-60.7l-70.7-123z m-6.8-11.4" fill="#29A1F7" p-id="2278"></path></svg>